<?xml version="1.0" encoding="UTF-8"?>
<!DOCTYPE svg PUBLIC "-//W3C//DTD SVG 1.1//EN" "http://www.w3.org/Graphics/SVG/1.1/DTD/svg11.dtd">
<svg version="1.1" xmlns="http://www.w3.org/2000/svg" xmlns:xlink="http://www.w3.org/1999/xlink" x="0" y="0" width="32" height="32" viewBox="0, 0, 32, 32">
  <g id="Layer_1">
    <path d="M32,0 L32,32 L-0,32 L-0,0 L32,0 z M17.679,4.408 L17.679,4.408 C9.872,4.408 3.5,9.383 3.5,15.589 L4,15.589 L3.501,15.621 C3.736,17.481 3.974,19.517 5.303,20.973 L5.144,21.184 C4.556,21.964 3.948,22.743 3.352,23.469 C3.125,23.745 2.904,24.009 2.69,24.258 C1.934,25.104 1.195,26.09 0.174,26.626 L0.141,26.637 L0.304,27.111 L0.439,27.591 L0.466,27.578 L0.467,27.583 L9.258,24.548 L9.61,24.745 C10.251,25.104 9.896,24.912 10.678,25.315 L10.966,25.442 C13.067,26.318 15.345,26.764 17.678,26.769 L17.679,26.269 L17.679,26.769 C25.487,26.77 31.859,21.795 31.859,15.589 C31.859,9.383 25.487,4.408 17.679,4.408 z M17.679,5.408 L17.679,5.408 C23.559,5.639 29.478,8.33 30.791,14.553 L30.859,15.589 C30.859,21.181 24.982,25.77 17.679,25.769 C15.522,25.662 13.348,25.407 11.351,24.519 C11,24.373 10.724,24.227 10.103,23.875 L9.787,23.698 L9.667,23.348 L2.69,25.757 L3.448,24.91 C3.668,24.655 3.894,24.385 4.125,24.103 C4.731,23.366 5.347,22.576 5.943,21.787 C6.151,21.511 6.342,21.254 6.511,21.024 C6.613,20.885 6.685,20.786 6.724,20.732 L6.06,20.254 C5.116,18.867 4.546,17.256 4.501,15.573 C4.939,8.885 11.577,5.462 17.679,5.408 z M12.362,15.089 L9.895,15.089 L9.895,17.556 L12.362,17.556 L12.362,15.089 z M24.722,15.089 L22.255,15.089 L22.255,17.556 L24.722,17.556 L24.722,15.089 z M18.542,15.089 L16.075,15.089 L16.075,17.556 L18.542,17.556 L18.542,15.089 z" fill="#FFFFFF"/>
    <g>
      <g/>
      <g/>
    </g>
  </g>
</svg>
