<?xml version="1.0" encoding="UTF-8"?>
<!DOCTYPE svg PUBLIC "-//W3C//DTD SVG 1.1//EN" "http://www.w3.org/Graphics/SVG/1.1/DTD/svg11.dtd">
<svg version="1.1" xmlns="http://www.w3.org/2000/svg" xmlns:xlink="http://www.w3.org/1999/xlink" x="0" y="0" width="32" height="32" viewBox="0, 0, 32, 32">
  <g id="Layer_1">
    <path d="M32.029,-0.029 L32.029,32.029 L-0.029,32.029 L-0.029,-0.029 L32.029,-0.029 z M16,4.259 L16,4.259 C7.588,4.684 0.868,10.893 0.728,19.53 C0.899,22.911 1.561,25.461 3.066,27.545 L3.207,27.741 L28.802,27.741 L28.943,27.532 C30.458,25.288 31.229,22.522 31.272,19.537 C30.847,11.123 24.642,4.399 16,4.259 z M16,5.207 L16,5.207 C23.911,5.207 30.323,11.62 30.323,19.53 C30.13,22.058 29.767,24.656 28.274,26.793 L3.706,26.793 C2.287,24.617 1.78,22.074 1.676,19.506 C2.076,11.623 7.912,5.339 16,5.207 z M17.893,15.701 C17.267,16.022 17.465,15.802 17.197,16.253 L15.732,20.243 L15.7,20.43 C14.563,20.482 13.949,20.833 13.466,21.907 C13.025,23.106 13.64,24.435 14.839,24.875 C16.038,25.316 17.367,24.7 17.808,23.501 C18.059,22.522 17.907,21.57 17.06,20.929 L17.157,20.766 L18.622,16.777 C18.779,16.35 18.587,15.887 18.193,15.742 L18.193,15.742 L17.893,15.701 z M26.879,15.699 C25.697,15.699 24.738,16.658 24.738,17.84 C24.738,19.023 25.697,19.982 26.88,19.982 C28.062,19.982 29.021,19.023 29.021,17.84 C29.021,16.658 28.062,15.699 26.88,15.699 z M5.145,15.699 C3.962,15.699 3.003,16.658 3.003,17.84 C3.003,19.023 3.962,19.982 5.145,19.982 C6.328,19.982 7.287,19.023 7.287,17.84 C7.287,16.658 6.328,15.699 5.145,15.699 z M9.428,10.152 C8.245,10.152 7.287,11.111 7.286,12.294 C7.287,13.477 8.245,14.436 9.428,14.436 C10.611,14.436 11.57,13.477 11.57,12.294 C11.57,11.111 10.611,10.152 9.428,10.152 z M22.596,10.152 C21.413,10.152 20.455,11.111 20.455,12.294 C20.455,13.477 21.413,14.436 22.596,14.436 C23.779,14.436 24.738,13.477 24.738,12.294 C24.738,11.111 23.779,10.152 22.596,10.152 z M16,7.382 C14.817,7.382 13.858,8.341 13.858,9.524 C13.858,10.706 14.817,11.665 16,11.665 C17.183,11.665 18.142,10.706 18.142,9.524 C18.142,8.341 17.183,7.382 16,7.382 z" fill="#FFFFFF"/>
    <g>
      <g>
        <path d="M76.472,2.947 C85.113,3.087 91.318,9.812 91.743,18.226 C91.701,21.211 90.93,23.977 89.415,26.221 L89.274,26.43 L63.679,26.43 L63.537,26.233 C62.032,24.15 61.37,21.6 61.2,18.219 C61.34,9.581 68.06,3.372 76.471,2.947 L76.472,2.947 z M76.471,3.896 C68.384,4.027 62.547,10.312 62.147,18.195 C62.251,20.762 62.758,23.306 64.178,25.482 L88.746,25.482 C90.238,23.345 90.601,20.747 90.795,18.219 C90.795,10.308 84.382,3.896 76.471,3.896 z" fill="#FFFFFF" fill-opacity="0.48"/>
      </g>
      <path d="M65.616,18.671 C64.434,18.671 63.475,17.712 63.475,16.529 C63.475,15.346 64.434,14.387 65.616,14.387 C66.799,14.387 67.758,15.346 67.758,16.529 C67.758,17.712 66.799,18.671 65.616,18.671 z" fill="#FFFFFF" fill-opacity="0.48"/>
      <path d="M87.351,18.671 C86.168,18.671 85.209,17.712 85.209,16.529 C85.209,15.346 86.168,14.387 87.351,14.387 C88.534,14.387 89.493,15.346 89.493,16.529 C89.493,17.712 88.534,18.671 87.351,18.671 z" fill="#FFFFFF" fill-opacity="0.48"/>
      <path d="M83.068,13.124 C81.885,13.124 80.926,12.165 80.926,10.983 C80.926,9.8 81.885,8.841 83.068,8.841 C84.251,8.841 85.209,9.8 85.209,10.983 C85.209,12.165 84.251,13.124 83.068,13.124 z" fill="#FFFFFF" fill-opacity="0.48"/>
      <path d="M76.471,10.354 C75.289,10.354 74.33,9.395 74.33,8.212 C74.33,7.029 75.289,6.07 76.471,6.07 C77.654,6.07 78.613,7.029 78.613,8.212 C78.613,9.395 77.654,10.354 76.471,10.354 z" fill="#FFFFFF" fill-opacity="0.48"/>
      <path d="M69.9,13.124 C68.717,13.124 67.758,12.165 67.758,10.983 C67.758,9.8 68.717,8.841 69.9,8.841 C71.083,8.841 72.041,9.8 72.041,10.983 C72.041,12.165 71.083,13.124 69.9,13.124 z" fill="#FFFFFF" fill-opacity="0.48"/>
      <path d="M78.665,14.431 C79.058,14.575 79.25,15.038 79.094,15.465 L77.629,19.455 L77.532,19.618 C78.379,20.259 78.531,21.211 78.279,22.19 C77.839,23.389 76.51,24.004 75.311,23.564 C74.112,23.124 73.497,21.795 73.937,20.596 C74.421,19.521 75.034,19.171 76.172,19.118 L76.203,18.931 L77.668,14.942 C77.825,14.515 78.271,14.286 78.665,14.431 z" fill="#FFFFFF" fill-opacity="0.48"/>
    </g>
  </g>
</svg>
