<?xml version="1.0" encoding="UTF-8"?>
<!DOCTYPE svg PUBLIC "-//W3C//DTD SVG 1.1//EN" "http://www.w3.org/Graphics/SVG/1.1/DTD/svg11.dtd">
<svg version="1.1" xmlns="http://www.w3.org/2000/svg" xmlns:xlink="http://www.w3.org/1999/xlink" x="0" y="0" width="32" height="32" viewBox="0, 0, 32, 32">
  <g id="Layer_1">
    <path d="M32,0 L32,32 L0,32 L0,0 L32,0 z M16.15,6.085 L16.111,6.085 C12.789,6.435 9.549,7.695 8.019,10.9 C4.18,11.498 1.605,14.492 1.388,18.359 C1.847,21.972 3.767,25.018 7.562,25.754 C7.663,25.797 7.611,25.775 7.715,25.819 C7.788,25.849 7.847,25.867 7.92,25.878 C7.96,25.885 8.19,25.898 8.33,25.912 L24.025,25.915 L24.415,25.878 L24.722,25.912 C28.012,25.915 30.612,23.064 30.612,19.57 C30.318,16.396 28.536,13.475 25.052,13.255 C23.814,8.994 20.679,6.244 16.15,6.085 z M16.14,7.129 L16.14,7.129 C20.45,7.562 23.109,9.545 24.147,13.869 L24.246,14.33 L24.714,14.278 L24.836,14.265 C27.413,14.268 29.569,16.632 29.569,19.57 C29.569,22.509 27.413,24.872 24.779,24.872 L24.476,24.836 L24.367,24.835 L23.973,24.875 L8.383,24.872 C8.149,24.851 8.244,24.857 8.097,24.848 L7.945,24.783 L7.828,24.75 C4.724,24.234 2.596,21.635 2.43,18.343 C2.492,14.996 5.115,12.058 8.381,11.893 L8.704,11.877 L8.833,11.58 C10.336,8.783 12.969,7.283 16.14,7.129 z M20.181,11.002 L12.766,11.002 C11.902,11.003 11.202,11.703 11.202,12.567 L11.202,21.382 C11.202,22.247 11.902,22.947 12.766,22.947 L19.806,22.947 C20.671,22.947 21.371,22.247 21.371,21.382 L21.371,12.567 L20.328,12.567 L20.328,12.751 C20.026,12.449 20.051,11.993 20.093,11.599 L20.181,11.002 z M19.039,12.045 L19.039,12.045 C19.013,12.738 19.306,13.34 19.867,13.698 L20.328,13.804 L20.328,21.382 C20.328,21.671 20.095,21.904 19.806,21.904 L12.766,21.904 C12.478,21.904 12.245,21.671 12.245,21.382 L12.245,12.567 C12.245,12.279 12.478,12.045 12.766,12.045 L19.039,12.045 z M19.434,18.791 L13.948,18.791 L13.948,19.834 L19.434,19.834 L19.434,18.791 z M19.094,16.181 L13.948,16.181 L13.948,17.224 L19.094,17.224 L19.094,16.181 z M16.715,13.634 L13.991,13.634 L13.991,14.677 L16.715,14.677 L16.715,13.634 z" fill="#FFFFFF"/>
  </g>
</svg>
