<?xml version="1.0" encoding="UTF-8"?>
<!DOCTYPE svg PUBLIC "-//W3C//DTD SVG 1.1//EN" "http://www.w3.org/Graphics/SVG/1.1/DTD/svg11.dtd">
<svg version="1.1" xmlns="http://www.w3.org/2000/svg" xmlns:xlink="http://www.w3.org/1999/xlink" x="0" y="0" width="32" height="32" viewBox="0, 0, 32, 32">
  <g id="Layer_1">
    <path d="M32,0 L32,32 L0,32 L0,0 L32,0 z M21.955,6.198 L3.161,6.199 C2.21,6.199 1.439,7.038 1.439,8.073 L2.204,8.074 L1.439,8.074 L1.439,28.174 C1.627,29.185 2.005,29.957 3.161,30.049 L27.293,30.05 C28.244,30.05 29.015,29.21 29.014,28.174 L29.014,12.521 L27.867,12.521 L27.867,28.174 C27.867,28.52 27.61,28.8 27.293,28.799 L3.161,28.799 C2.844,28.8 2.587,28.52 2.587,28.174 L2.587,8.074 C2.66,7.683 2.576,7.891 2.938,7.498 L3.161,7.449 L21.955,7.449 L21.955,6.198 z M28.132,1.95 L27.789,2.45 L27.283,2.116 L17.856,16.408 L18.363,16.742 L17.777,16.586 L16.56,21.147 L17.146,21.304 L17.543,21.763 L21.024,18.754 L20.628,18.295 L21.134,18.629 L30.561,4.337 L30.054,4.003 L30.397,3.503 L28.132,1.95 z M27.956,3.3 L29.22,4.166 L20.168,17.891 L18.24,19.557 L18.924,16.993 L27.956,3.3 z M27.081,5.141 L19.537,16.631 L20.372,17.18 L27.917,5.69 L27.081,5.141 z" fill="#FFFFFF"/>
  </g>
</svg>
