<?xml version="1.0" encoding="UTF-8"?>
<!DOCTYPE svg PUBLIC "-//W3C//DTD SVG 1.1//EN" "http://www.w3.org/Graphics/SVG/1.1/DTD/svg11.dtd">
<svg version="1.1" xmlns="http://www.w3.org/2000/svg" xmlns:xlink="http://www.w3.org/1999/xlink" x="0" y="0" width="32" height="32" viewBox="0, 0, 32, 32">
  <g id="Layer_1">
    <path d="M31.945,-0.109 L31.945,31.891 L-0.055,31.891 L-0.055,-0.109 L31.945,-0.109 z M30.226,1.782 L25.928,8.075 C24.154,5.436 21.474,3.762 18.224,3.748 L10.004,3.748 C4.97,3.748 0.89,7.844 0.89,12.896 L0.89,20.852 C0.89,25.904 4.97,30 10.004,30 L18.224,30 C23.258,30 27.338,25.904 27.338,20.852 L27.338,12.896 C27.27,11.549 27.096,10.201 26.433,8.997 L31,2.311 L30.226,1.782 z M18.224,4.684 C21.108,4.976 24.125,6.043 25.296,9 L13.296,26.57 L3.488,14.054 L2.751,14.632 L12.921,27.611 L12.921,27.644 L12.947,27.644 L12.953,27.652 L12.963,27.644 L13.752,27.644 L13.752,27.563 L25.728,10.029 C26.45,11.752 26.192,10.805 26.402,12.896 L26.402,20.852 C26.402,25.388 22.74,29.063 18.224,29.063 L10.004,29.063 C5.488,29.063 1.827,25.388 1.826,20.852 L1.826,12.896 C1.827,8.36 5.488,4.685 10.004,4.684 L18.224,4.684 z" fill="#FFFFFF"/>
  </g>
</svg>
